<mxfile host="app.diagrams.net" modified="2024-03-06T05:56:17.019Z" agent="Mozilla/5.0 (Windows NT 10.0; Win64; x64; rv:123.0) Gecko/20100101 Firefox/123.0" version="24.0.2" etag="esoh4of-WUwaiW8RzOVv" type="github">
  <diagram name="Page-1" id="mF6GrfeL_8Cy2piwtOac">
    <mxGraphModel>
      <root>
        <mxCell id="0" />
        <mxCell id="1" parent="0" />
      </root>
    </mxGraphModel>
  </diagram>
</mxfile>
